<svg id="Cloud" xmlns="http://www.w3.org/2000/svg" width="288.003" height="216.216" viewBox="0 0 288.003 216.216">
  <g id="Union_2" data-name="Union 2" fill="#fff">
    <path d="M 139.2039947509766 215.7160034179688 C 133.9348449707031 215.7160034179688 128.6864624023438 215.1833648681641 123.6045989990234 214.1329345703125 C 118.6648483276367 213.1118621826172 113.8481674194336 211.5950317382812 109.2883148193359 209.6246032714844 C 104.8113861083984 207.6900329589844 100.5636672973633 205.3107452392578 96.6632080078125 202.5528564453125 C 92.7884521484375 199.8131866455078 89.24702453613281 196.6934661865234 86.13731384277344 193.2803955078125 L 85.94088745117188 193.0648193359375 L 85.65652465820312 193.129638671875 C 80.44499206542969 194.3180389404297 75.06045532226562 194.9206085205078 69.65245819091797 194.9206085205078 C 60.31445693969727 194.9206085205078 51.25613403320312 193.1605072021484 42.72920608520508 189.6891479492188 C 38.63127517700195 188.0208892822266 34.67888259887695 185.9560394287109 30.98177719116211 183.552001953125 C 27.32002639770508 181.1709594726562 23.87674140930176 178.4365386962891 20.74756240844727 175.4247131347656 C 17.61870574951172 172.4132232666016 14.77816963195801 169.099609375 12.30484771728516 165.5759735107422 C 9.808169364929199 162.0189666748047 7.663812160491943 158.2165679931641 5.931419372558594 154.2743225097656 C 2.327383756637573 146.0730743408203 0.4999908208847046 137.3611450195312 0.4999908208847046 128.3805084228516 C 0.4999908208847046 122.563606262207 1.280597925186157 116.7913589477539 2.820133686065674 111.2239990234375 C 4.313740730285645 105.82275390625 6.52145528793335 100.610466003418 9.381955146789551 95.73193359375 C 15.01784801483154 86.12004089355469 23.13081169128418 77.9276123046875 32.84381103515625 72.04035949707031 L 33.14788436889648 71.85607147216797 L 33.0735969543457 71.50836181640625 C 32.29509735107422 67.86339569091797 31.90034866333008 64.11779022216797 31.90034866333008 60.3756103515625 C 31.90034866333008 52.30032348632812 33.69484710693359 44.46617889404297 37.23398971557617 37.09082412719727 C 38.93584823608398 33.54428863525391 41.0424919128418 30.12335968017578 43.49549102783203 26.92300224304199 C 45.92620468139648 23.75168037414551 48.71802520751953 20.76925086975098 51.79341888427734 18.05853652954102 C 54.86995697021484 15.34682273864746 58.25552749633789 12.88475131988525 61.85609817504883 10.74068069458008 C 65.49220275878906 8.575466156005859 69.37956237792969 6.715715885162354 73.41024017333984 5.213037490844727 C 81.79891967773438 2.085716009140015 90.71070861816406 0.5000017285346985 99.89806365966797 0.5000017285346985 C 113.3275985717773 0.5000017285346985 126.3148803710938 3.942394495010376 137.4558868408203 10.45503711700439 L 137.7059478759766 10.60125160217285 L 137.9571685791016 10.45700168609619 C 149.0553436279297 4.084394454956055 161.9586029052734 0.7160016894340515 175.2720336914062 0.7160016894340515 C 181.60009765625 0.7160016894340515 187.8669128417969 1.4761803150177 193.8984222412109 2.975394487380981 C 199.7427825927734 4.428108692169189 205.3494262695312 6.56907320022583 210.5625610351562 9.338823318481445 C 220.8707733154297 14.81553745269775 229.3878173828125 22.6113224029541 235.1929168701172 31.88335800170898 L 235.3340606689453 32.10882186889648 L 235.5999145507812 32.11775207519531 C 242.6770324707031 32.35528564453125 249.5118865966797 33.70293045043945 255.9146270751953 36.12314605712891 C 262.11328125 38.46625137329102 267.6621398925781 41.71685791015625 272.406982421875 45.78461074829102 C 277.1535949707031 49.85385894775391 280.8736267089844 54.55110931396484 283.4638061523438 59.74585723876953 C 286.1416320800781 65.11646270751953 287.4994201660156 70.80878448486328 287.4994201660156 76.66471862792969 C 287.4994201660156 82.10039520263672 286.324951171875 87.41043090820312 284.0086669921875 92.44728851318359 C 281.7680358886719 97.31967926025391 278.5265197753906 101.8004684448242 274.374267578125 105.7651062011719 L 274.0360717773438 106.0880737304688 L 274.3356628417969 106.4471054077148 C 278.5319213867188 111.4756774902344 281.7917175292969 117.0145034790039 284.0245666503906 122.9097137451172 C 286.3324584960938 129.0030364990234 287.5026245117188 135.3802490234375 287.5026245117188 141.8642883300781 C 287.5026245117188 149.9393615722656 285.7081298828125 157.7733306884766 282.1689758300781 165.1485748291016 C 280.4671325683594 168.6950073242188 278.3604431152344 172.1158905029297 275.9075012207031 175.3162231445312 C 273.4767761230469 178.4875030517578 270.6849060058594 181.4698944091797 267.6095275878906 184.1805725097656 C 264.5330200195312 186.8922882080078 261.1474609375 189.3543243408203 257.546875 191.4983520507812 C 253.9107818603516 193.6635437011719 250.0233764648438 195.5233306884766 245.9927062988281 197.0259704589844 C 237.6039886474609 200.1533203125 228.6921997070312 201.7389984130859 219.5048828125 201.7389984130859 C 214.348876953125 201.7389984130859 209.21044921875 201.2288970947266 204.2323150634766 200.2228546142578 C 199.3912811279297 199.2445373535156 194.6631622314453 197.7899322509766 190.1793518066406 195.8995361328125 L 189.8739624023438 195.770751953125 L 189.6364135742188 196.0018920898438 C 186.5282745361328 199.0262145996094 183.0587768554688 201.7801818847656 179.3243103027344 204.1872863769531 C 175.5578765869141 206.6150054931641 171.4992828369141 208.7042541503906 167.2612762451172 210.3970031738281 C 162.9439544677734 212.1214294433594 158.4074554443359 213.4472198486328 153.7777709960938 214.3374633789062 C 149.0210266113281 215.2522125244141 144.1177062988281 215.7160034179688 139.2039947509766 215.7160034179688 Z" stroke="none"/>
    <path d="M 139.2039947509766 215.2160034179688 C 144.0861053466797 215.2160034179688 148.9576721191406 214.7552185058594 153.683349609375 213.8464660644531 C 158.2819976806641 212.9621734619141 162.787841796875 211.6453552246094 167.0758056640625 209.9326477050781 C 171.2840576171875 208.2517852783203 175.3139190673828 206.1773529052734 179.0534210205078 203.7670440673828 C 182.7600250244141 201.3778991699219 186.2033538818359 198.6447448730469 189.2877044677734 195.6435394287109 L 189.7627716064453 195.1812896728516 L 190.3735961914062 195.4387817382812 C 194.8268127441406 197.3163299560547 199.5228881835938 198.7610015869141 204.3313446044922 199.7327575683594 C 209.2769622802734 200.7322235107422 214.3820648193359 201.2389984130859 219.5048828125 201.2389984130859 C 228.6323852539062 201.2389984130859 237.4854125976562 199.6638946533203 245.8180236816406 196.5574645996094 C 249.8206329345703 195.0652923583984 253.6807098388672 193.2186126708984 257.2910766601562 191.0687561035156 C 260.8651428222656 188.9405059814453 264.2255249023438 186.4967803955078 267.2789306640625 183.8054962158203 C 270.3300476074219 181.1161804199219 273.099609375 178.1576385498047 275.5106201171875 175.0120697021484 C 277.9427185058594 171.8390350341797 280.03125 168.4476776123047 281.7182006835938 164.9322509765625 C 285.2247009277344 157.6250762939453 287.0026245117188 149.8638610839844 287.0026245117188 141.8642883300781 C 287.0026245117188 135.4409942626953 285.8433532714844 129.1233215332031 283.5569763183594 123.0868225097656 C 281.3439331054688 117.2438201904297 278.1122436523438 111.7531814575195 273.9517822265625 106.767463684082 L 273.3525695800781 106.0493621826172 L 274.0289916992188 105.4035034179688 C 278.1354064941406 101.4825744628906 281.3402404785156 97.05321502685547 283.5544128417969 92.23835754394531 C 285.8403625488281 87.26750183105469 286.9994201660156 82.02778625488281 286.9994201660156 76.66471862792969 C 286.9994201660156 70.88693237304688 285.6593017578125 65.26964569091797 283.016357421875 59.96896743774414 C 280.4561462402344 54.83432388305664 276.7771301269531 50.18971633911133 272.0815734863281 46.16421508789062 C 267.3808898925781 42.13432312011719 261.8820495605469 38.91339492797852 255.7378540039062 36.59085845947266 C 249.3864135742188 34.19003677368164 242.6054229736328 32.85317993164062 235.5831756591797 32.61746597290039 L 235.0514526367188 32.59964370727539 L 234.7691345214844 32.14871597290039 C 229.0104522705078 22.95085906982422 220.5588531494141 15.21600151062012 210.3279876708984 9.780359268188477 C 205.15087890625 7.029751777648926 199.5825958251953 4.903501510620117 193.7778167724609 3.460644483566284 C 187.7857055664062 1.971215963363647 181.5594482421875 1.216001749038696 175.2720336914062 1.216001749038696 C 162.0458526611328 1.216001749038696 149.2286682128906 4.56143045425415 138.2061767578125 10.89060878753662 L 137.7037048339844 11.17910861968994 L 137.2035217285156 10.88671588897705 C 126.1390228271484 4.418787479400635 113.2390289306641 1.000001668930054 99.89806365966797 1.000001668930054 C 90.77052307128906 1.000001668930054 81.91752624511719 2.575108766555786 73.58492279052734 5.681537628173828 C 69.58231353759766 7.173751831054688 65.72224426269531 9.020430564880371 62.11191940307617 11.17028713226318 C 58.53781127929688 13.29857349395752 55.17741775512695 15.74228763580322 52.12402725219727 18.43360900878906 C 49.07291793823242 21.1229305267334 46.30334854125977 24.08150100708008 43.89231109619141 27.22714424133301 C 41.46027755737305 30.40021514892578 39.37174224853516 33.79161071777344 37.68477630615234 37.30714416503906 C 34.17827606201172 44.61442947387695 32.40034866333008 52.37578582763672 32.40034866333008 60.3756103515625 C 32.40034866333008 64.08274841308594 32.7913818359375 67.793212890625 33.56256103515625 71.40389251708984 L 33.71109771728516 72.09935760498047 L 33.10298919677734 72.46796417236328 C 23.46074104309082 78.31232452392578 15.40731239318848 86.44432067871094 9.813276290893555 95.98482513427734 C 6.974776744842529 100.8258590698242 4.784062385559082 105.9978942871094 3.302026510238647 111.3572845458984 C 1.774526596069336 116.881217956543 0.9999908208847046 122.608642578125 0.9999908208847046 128.3805084228516 C 0.9999908208847046 137.2914733886719 2.813169479370117 145.9357147216797 6.389169216156006 154.0731811523438 C 8.108312606811523 157.9852447509766 10.23634815216064 161.7586822509766 12.71409797668457 165.2886810302734 C 15.16902637481689 168.7861480712891 17.98852729797363 172.0752105712891 21.09427642822266 175.0644683837891 C 24.20070457458496 178.0543975830078 27.61906242370605 180.7689971923828 31.25434875488281 183.1328277587891 C 34.92495346069336 185.5196380615234 38.84909820556641 187.5697174072266 42.91773986816406 189.22607421875 C 51.38452529907227 192.6728973388672 60.3793830871582 194.4206085205078 69.65245819091797 194.4206085205078 C 75.02309417724609 194.4206085205078 80.3702392578125 193.8222503662109 85.54538726806641 192.6421813964844 L 86.11405944824219 192.5124969482422 L 86.50688171386719 192.9436492919922 C 89.59234619140625 196.330078125 93.10655975341797 199.4257507324219 96.95185089111328 202.1446075439453 C 100.8241348266602 204.882568359375 105.0414581298828 207.2447814941406 109.4866714477539 209.1656494140625 C 114.0153121948242 211.1225738525391 118.7993469238281 212.6290740966797 123.705810546875 213.6432800292969 C 128.7544555664062 214.6868591308594 133.9687805175781 215.2160034179688 139.2039947509766 215.2160034179688 M 139.2039947509766 216.2160034179688 C 117.5942077636719 216.2160034179688 98.32184600830078 207.3958892822266 85.76770782470703 193.6171417236328 C 80.59434509277344 194.7968292236328 75.20052337646484 195.4206085205078 69.65245819091797 195.4206085205078 C 31.18470573425293 195.4206085205078 -9.172712452709675e-06 165.4056091308594 -9.172712452709675e-06 128.3805084228516 C -9.172712452709675e-06 104.4669647216797 13.00681209564209 83.47932434082031 32.58463287353516 71.61278533935547 C 31.80691909790039 67.97157287597656 31.40034866333008 64.21596527099609 31.40034866333008 60.3756103515625 C 31.40034866333008 27.03060913085938 62.06766891479492 1.708984427750693e-06 99.89806365966797 1.708984427750693e-06 C 113.8743515014648 1.708984427750693e-06 126.8725280761719 3.689215898513794 137.7082061767578 10.02339458465576 C 148.5111694335938 3.820287466049194 161.4127044677734 0.2160017043352127 175.2720336914062 0.2160017043352127 C 201.2661285400391 0.2160017043352127 223.8967437744141 12.89868068695068 235.61669921875 31.61803817749023 C 264.7483520507812 32.59585952758789 287.9994201660156 52.38993072509766 287.9994201660156 76.66471862792969 C 287.9994201660156 87.92789459228516 282.9954528808594 98.22475433349609 274.7195739746094 106.1267547607422 C 283.0690307617188 116.1323928833008 288.0026245117188 128.4908905029297 288.0026245117188 141.8642883300781 C 288.0026245117188 175.2083892822266 257.3352661132812 202.2389984130859 219.5048828125 202.2389984130859 C 208.9343414306641 202.2389984130859 198.9243469238281 200.1291046142578 189.9850921630859 196.3602447509766 C 177.4520263671875 208.5554351806641 159.3429565429688 216.2160034179688 139.2039947509766 216.2160034179688 Z" stroke="none" fill="#707070"/>
  </g>
</svg>
