<svg id="Panda_Face" data-name="Panda Face" xmlns="http://www.w3.org/2000/svg" width="411" height="363.155" viewBox="0 0 411 363.155">
  <g id="Group_1" data-name="Group 1" transform="translate(-483 -326)">
    <g id="Ellipse_1" data-name="Ellipse 1" transform="translate(483 326)" stroke="#707070" stroke-width="1">
      <circle cx="69" cy="69" r="69" stroke="none"/>
      <circle cx="69" cy="69" r="68.5" fill="none"/>
    </g>
    <g id="Ellipse_2" data-name="Ellipse 2" transform="translate(756 326)" stroke="#707070" stroke-width="1">
      <circle cx="69" cy="69" r="69" stroke="none"/>
      <circle cx="69" cy="69" r="68.5" fill="none"/>
    </g>
    <path id="Path_1" data-name="Path 1" d="M171.571,0c94.756,0,171.571,69.669,171.571,155.609,0,44.087-13.738,97.778-46.319,126.179-30.736,26.793-79.105,29.431-125.251,29.431-46.335,0-104.326-10.14-135.289-37.295C4.113,245.711,0,199.525,0,155.609,0,69.669,76.815,0,171.571,0Z" transform="translate(516.859 350)" fill="#fff"/>
    <g id="Ellipse_4" data-name="Ellipse 4" transform="translate(563 464)" stroke="#707070" stroke-width="1">
      <ellipse cx="37.5" cy="50.5" rx="37.5" ry="50.5" stroke="none"/>
      <ellipse cx="37.5" cy="50.5" rx="37" ry="50" fill="none"/>
    </g>
    <g id="Ellipse_5" data-name="Ellipse 5" transform="translate(728 464)" stroke="#707070" stroke-width="1">
      <ellipse cx="37.5" cy="50.5" rx="37.5" ry="50.5" stroke="none"/>
      <ellipse cx="37.5" cy="50.5" rx="37" ry="50" fill="none"/>
    </g>
    <g id="Ellipse_6" data-name="Ellipse 6" transform="translate(746 492)" fill="#cce6ff" stroke="#707070" stroke-width="1">
      <ellipse cx="20" cy="22.5" rx="20" ry="22.5" stroke="none"/>
      <ellipse cx="20" cy="22.5" rx="19.5" ry="22" fill="none"/>
    </g>
    <g id="Ellipse_7" data-name="Ellipse 7" transform="translate(581 492)" fill="#cce6ff" stroke="#707070" stroke-width="1">
      <ellipse cx="20" cy="22.5" rx="20" ry="22.5" stroke="none"/>
      <ellipse cx="20" cy="22.5" rx="19.5" ry="22" fill="none"/>
    </g>
    <ellipse id="Ellipse_8" data-name="Ellipse 8" cx="15.5" cy="20" rx="15.5" ry="20" transform="translate(588 492)"/>
    <ellipse id="Ellipse_9" data-name="Ellipse 9" cx="15.5" cy="20" rx="15.5" ry="20" transform="translate(753 492)"/>
    <g id="Path_2" data-name="Path 2" transform="translate(656.5 559)">
      <path d="M 32 25.5 C 23.51548957824707 25.5 15.54640960693359 24.16082000732422 9.560770034790039 21.72915077209473 C 6.680960178375244 20.55923080444336 4.426859855651855 19.20348930358887 2.861079931259155 17.6995792388916 C 1.294379949569702 16.19479942321777 0.5 14.6136302947998 0.5 13 C 0.5 11.3863697052002 1.294379949569702 9.80519962310791 2.861079931259155 8.300419807434082 C 4.426859855651855 6.796510219573975 6.680960178375244 5.440770149230957 9.560770034790039 4.27085018157959 C 15.54640960693359 1.839179992675781 23.51548957824707 0.5 32 0.5 C 40.4845085144043 0.5 48.45359039306641 1.839179992675781 54.43923187255859 4.27085018157959 C 57.31903839111328 5.440770149230957 59.57313919067383 6.796510219573975 61.13891983032227 8.300419807434082 C 62.70561981201172 9.80519962310791 63.5 11.3863697052002 63.5 13 C 63.5 14.6136302947998 62.70561981201172 16.19479942321777 61.13891983032227 17.6995792388916 C 59.57313919067383 19.20348930358887 57.31903839111328 20.55923080444336 54.43923187255859 21.72915077209473 C 48.45359039306641 24.16082000732422 40.4845085144043 25.5 32 25.5 Z" stroke="none"/>
      <path d="M 32 1 C 23.5784797668457 1 15.67623901367188 2.326120376586914 9.748958587646484 4.734079360961914 C 6.92816162109375 5.880029678344727 4.727268218994141 7.201240539550781 3.207431793212891 8.661029815673828 C 1.742691040039062 10.06789016723633 1 11.52772998809814 1 13 C 1 14.47227001190186 1.742691040039062 15.93210983276367 3.207431793212891 17.33897018432617 C 4.727268218994141 18.79875946044922 6.92816162109375 20.11997032165527 9.748958587646484 21.26592063903809 C 15.67623901367188 23.67387962341309 23.5784797668457 25 32 25 C 40.4215202331543 25 48.32376098632812 23.67387962341309 54.25104141235352 21.26592063903809 C 57.07183837890625 20.11997032165527 59.27272796630859 18.79875946044922 60.79257202148438 17.33897018432617 C 62.25730895996094 15.93210983276367 63 14.47227001190186 63 13 C 63 11.52772998809814 62.25730895996094 10.06789016723633 60.79257202148438 8.661029815673828 C 59.27272796630859 7.201240539550781 57.07183837890625 5.880029678344727 54.25104141235352 4.734079360961914 C 48.32376098632812 2.326120376586914 40.4215202331543 1 32 1 M 32 0 C 49.67311096191406 0 64 5.82029914855957 64 13 C 64 20.1796989440918 49.67311096191406 26 32 26 C 14.32688903808594 26 0 20.1796989440918 0 13 C 0 5.82029914855957 14.32688903808594 0 32 0 Z" stroke="none" fill="#707070"/>
    </g>
    <circle id="Ellipse_10" data-name="Ellipse 10" cx="9" cy="9" r="9" transform="translate(592 497)" fill="#fff"/>
    <circle id="Ellipse_11" data-name="Ellipse 11" cx="9" cy="9" r="9" transform="translate(757 497)" fill="#fff"/>
    <circle id="Ellipse_12" data-name="Ellipse 12" cx="3" cy="3" r="3" transform="translate(610 509)" fill="#fff"/>
    <circle id="Ellipse_13" data-name="Ellipse 13" cx="3" cy="3" r="3" transform="translate(775 509)" fill="#fff"/>
    <text id="_" data-name=")" transform="translate(669.802 613.325) rotate(89)" font-size="69" font-family="Helvetica"><tspan x="0" y="0">)</tspan></text>
  </g>
  <path id="Path_9" data-name="Path 9" d="M50.2,0V28.078H0Z" transform="translate(205.5 307)" fill="#d90000"/>
  <path id="Path_10" data-name="Path 10" d="M0,0V28.078H50.2Z" transform="translate(155.298 307)" fill="#d90000"/>
  <path id="Path_11" data-name="Path 11" d="M50.2,0V28.078H0Z" transform="translate(205.5 363.155) rotate(180)" fill="#d90000"/>
  <path id="Path_12" data-name="Path 12" d="M0,0V28.078H50.2Z" transform="translate(255.702 363.155) rotate(180)" fill="#d90000"/>
</svg>
